<?xml version="1.0" encoding="utf-8"?>
<!-- Generator: Adobe Illustrator 16.0.0, SVG Export Plug-In . SVG Version: 6.00 Build 0)  -->
<!DOCTYPE svg PUBLIC "-//W3C//DTD SVG 1.1//EN" "http://www.w3.org/Graphics/SVG/1.1/DTD/svg11.dtd">
<svg version="1.1" id="圖層_1" xmlns="http://www.w3.org/2000/svg" xmlns:xlink="http://www.w3.org/1999/xlink" x="0px" y="0px"
	 width="627.358px" height="416.981px" viewBox="0 0 627.358 416.981" enable-background="new 0 0 627.358 416.981"
	 xml:space="preserve">
<g>
	
		<polygon fill="none" stroke="#E2E2E2" stroke-width="10" stroke-linecap="round" stroke-linejoin="round" stroke-miterlimit="10" points="
		106.481,167.218 25.625,273.205 106.481,379.189 187.337,273.205 	"/>
	
		<line fill="none" stroke="#E2E2E2" stroke-width="10" stroke-linecap="round" stroke-linejoin="round" stroke-miterlimit="10" x1="25.625" y1="273.205" x2="187.337" y2="273.205"/>
</g>
<g>
	
		<polygon fill="none" stroke="#E2E2E2" stroke-width="10" stroke-linecap="round" stroke-linejoin="round" stroke-miterlimit="10" points="
		300.905,167.218 220.049,273.205 300.905,379.189 381.762,273.205 	"/>
	
		<line fill="none" stroke="#E2E2E2" stroke-width="10" stroke-linecap="round" stroke-linejoin="round" stroke-miterlimit="10" x1="220.049" y1="273.205" x2="381.762" y2="273.205"/>
</g>
<g>
	
		<polygon fill="none" stroke="#E2E2E2" stroke-width="10" stroke-linecap="round" stroke-linejoin="round" stroke-miterlimit="10" points="
		203.693,24.998 122.837,130.984 203.693,236.969 284.549,130.984 	"/>
	
		<line fill="none" stroke="#E2E2E2" stroke-width="10" stroke-linecap="round" stroke-linejoin="round" stroke-miterlimit="10" x1="122.837" y1="130.984" x2="284.549" y2="130.984"/>
</g>
<g>
	
		<polygon fill="none" stroke="#E2E2E2" stroke-width="10" stroke-linecap="round" stroke-linejoin="round" stroke-miterlimit="10" points="
		519.028,24.998 438.172,93.849 519.028,162.7 599.884,93.849 	"/>
	
		<line fill="none" stroke="#E2E2E2" stroke-width="10" stroke-linecap="round" stroke-linejoin="round" stroke-miterlimit="10" x1="438.172" y1="93.849" x2="599.884" y2="93.849"/>
</g>
<g>
	
		<polygon fill="none" stroke="#E2E2E2" stroke-width="10" stroke-linecap="round" stroke-linejoin="round" stroke-miterlimit="10" points="
		519.028,162.7 438.172,231.551 519.028,300.402 599.884,231.551 	"/>
	
		<line fill="none" stroke="#E2E2E2" stroke-width="10" stroke-linecap="round" stroke-linejoin="round" stroke-miterlimit="10" x1="438.172" y1="231.551" x2="599.884" y2="231.551"/>
</g>
<line fill="none" stroke="#E2E2E2" stroke-width="10" stroke-linecap="round" stroke-linejoin="round" stroke-miterlimit="10" x1="519.028" y1="300.402" x2="519.028" y2="392.258"/>
<line fill="none" stroke="#E2E2E2" stroke-width="10" stroke-linecap="round" stroke-linejoin="round" stroke-miterlimit="10" x1="519.028" y1="300.402" x2="603.354" y2="384.724"/>
<line fill="none" stroke="#E2E2E2" stroke-width="10" stroke-linecap="round" stroke-linejoin="round" stroke-miterlimit="10" x1="519.028" y1="300.402" x2="434.702" y2="384.724"/>
</svg>
