<?xml version="1.0" encoding="utf-8"?>
<!-- Generator: Adobe Illustrator 16.0.0, SVG Export Plug-In . SVG Version: 6.00 Build 0)  -->
<!DOCTYPE svg PUBLIC "-//W3C//DTD SVG 1.1//EN" "http://www.w3.org/Graphics/SVG/1.1/DTD/svg11.dtd">
<svg version="1.1" id="圖層_1" xmlns="http://www.w3.org/2000/svg" xmlns:xlink="http://www.w3.org/1999/xlink" x="0px" y="0px"
	 width="595.28px" height="841.89px" viewBox="0 0 595.28 841.89" enable-background="new 0 0 595.28 841.89" xml:space="preserve">
<g>
	
		<polygon fill="none" stroke="#E2E2E2" stroke-width="10" stroke-linecap="round" stroke-linejoin="round" stroke-miterlimit="10" points="
		88.481,329.03 7.625,435.017 88.481,541.001 169.337,435.017 	"/>
	
		<line fill="none" stroke="#E2E2E2" stroke-width="10" stroke-linecap="round" stroke-linejoin="round" stroke-miterlimit="10" x1="7.625" y1="435.017" x2="169.337" y2="435.017"/>
</g>
<g>
	
		<polygon fill="none" stroke="#E2E2E2" stroke-width="10" stroke-linecap="round" stroke-linejoin="round" stroke-miterlimit="10" points="
		282.905,329.03 202.049,435.017 282.905,541.001 363.762,435.017 	"/>
	
		<line fill="none" stroke="#E2E2E2" stroke-width="10" stroke-linecap="round" stroke-linejoin="round" stroke-miterlimit="10" x1="202.049" y1="435.017" x2="363.762" y2="435.017"/>
</g>
<g>
	
		<polygon fill="none" stroke="#E2E2E2" stroke-width="10" stroke-linecap="round" stroke-linejoin="round" stroke-miterlimit="10" points="
		185.693,186.81 104.837,292.795 185.693,398.781 266.549,292.795 	"/>
	
		<line fill="none" stroke="#E2E2E2" stroke-width="10" stroke-linecap="round" stroke-linejoin="round" stroke-miterlimit="10" x1="104.837" y1="292.795" x2="266.549" y2="292.795"/>
</g>
<g>
	
		<polygon fill="none" stroke="#E2E2E2" stroke-width="10" stroke-linecap="round" stroke-linejoin="round" stroke-miterlimit="10" points="
		501.028,186.81 420.172,255.661 501.028,324.512 581.884,255.661 	"/>
	
		<line fill="none" stroke="#E2E2E2" stroke-width="10" stroke-linecap="round" stroke-linejoin="round" stroke-miterlimit="10" x1="420.172" y1="255.661" x2="581.884" y2="255.661"/>
</g>
<g>
	
		<polygon fill="none" stroke="#E2E2E2" stroke-width="10" stroke-linecap="round" stroke-linejoin="round" stroke-miterlimit="10" points="
		501.028,324.512 420.172,393.363 501.028,462.214 581.884,393.363 	"/>
	
		<line fill="none" stroke="#E2E2E2" stroke-width="10" stroke-linecap="round" stroke-linejoin="round" stroke-miterlimit="10" x1="420.172" y1="393.363" x2="581.884" y2="393.363"/>
</g>
<line fill="none" stroke="#E2E2E2" stroke-width="10" stroke-linecap="round" stroke-linejoin="round" stroke-miterlimit="10" x1="501.028" y1="462.214" x2="501.028" y2="554.069"/>
<line fill="none" stroke="#E2E2E2" stroke-width="10" stroke-linecap="round" stroke-linejoin="round" stroke-miterlimit="10" x1="501.028" y1="462.214" x2="585.354" y2="546.535"/>
<line fill="none" stroke="#E2E2E2" stroke-width="10" stroke-linecap="round" stroke-linejoin="round" stroke-miterlimit="10" x1="501.028" y1="462.214" x2="416.702" y2="546.535"/>
</svg>
